<svg width="54" height="40" viewBox="0 0 54 40" fill="none" xmlns="http://www.w3.org/2000/svg">
<path d="M10.2861 3.33325H50.5198C52.3527 3.33325 53.7572 4.96251 53.487 6.77544L48.9169 37.442C48.6979 38.9119 47.4358 39.9998 45.9497 39.9998H8.59345C6.77088 39.9998 5.36938 38.388 5.62253 36.5831L10.2861 3.33325Z" fill="#53565C"/>
<path d="M10.4594 2.4319L10.2855 3.33333H23.1425V3C23.1425 1.34314 21.7994 0 20.1425 0H13.4051C11.9673 0 10.7316 1.02011 10.4594 2.4319Z" fill="#53565C"/>
<path d="M0.633238 14.8632C0.303232 13.0237 1.71724 11.3335 3.5861 11.3335H41.2589C42.6869 11.3335 43.917 12.3401 44.1996 13.74L48.7743 36.4066C49.1492 38.2644 47.7288 40.0001 45.8336 40.0001H7.6525C6.2 40.0001 4.95613 38.9595 4.69964 37.5298L0.633238 14.8632Z" fill="#83878F"/>
</svg>
