<svg width="14" height="14" viewBox="0 0 14 14" fill="none" xmlns="http://www.w3.org/2000/svg">
<path fill-rule="evenodd" clip-rule="evenodd" d="M7 13C3.68629 13 1 10.3137 1 7C1 3.68629 3.68629 1 7 1C10.3137 1 13 3.68629 13 7C13 10.3137 10.3137 13 7 13ZM0 7C0 3.13401 3.13401 0 7 0C10.866 0 14 3.13401 14 7C14 10.866 10.866 14 7 14C3.13401 14 0 10.866 0 7ZM6.87629 9.32925L10.3763 5.32925L9.62371 4.67075L6.47565 8.26854L4.85355 6.64645L4.14645 7.35355L6.14645 9.35355C6.2443 9.45141 6.37833 9.50433 6.51664 9.49972C6.65495 9.49512 6.78516 9.4334 6.87629 9.32925Z" fill="#83878F"/>
</svg>
