<svg width="13" height="13" viewBox="0 0 13 13" fill="none" xmlns="http://www.w3.org/2000/svg">
<path d="M5.15048 0C6.51647 0 7.82651 0.542638 8.79241 1.50854C9.75832 2.47444 10.301 3.78449 10.301 5.15048C10.301 6.42621 9.83345 7.59893 9.06484 8.50225L9.27878 8.71619H9.90476L13 11.8114L11.8114 13L8.71619 9.90476V9.27878L8.50225 9.06484C7.59893 9.83345 6.42621 10.301 5.15048 10.301C3.78449 10.301 2.47444 9.75832 1.50854 8.79241C0.542638 7.82651 0 6.51647 0 5.15048C0 3.78449 0.542638 2.47444 1.50854 1.50854C2.47444 0.542638 3.78449 0 5.15048 0ZM5.15048 1.58476C3.16952 1.58476 1.58476 3.16952 1.58476 5.15048C1.58476 7.13143 3.16952 8.71619 5.15048 8.71619C7.13143 8.71619 8.71619 7.13143 8.71619 5.15048C8.71619 3.16952 7.13143 1.58476 5.15048 1.58476Z" fill="#83878F"/>
</svg>
